<svg width="400" height="720" viewBox="0 0 793 600" fill="none" xmlns="http://www.w3.org/2000/svg">
<path fill-rule="evenodd" clip-rule="evenodd" d="M649.751 984.187H0.394531V56.6931C26.9277 53.2991 53.97 51.5498 81.4177 51.5498C433.289 51.5498 718.537 339.036 718.537 693.669C718.537 798.227 693.74 896.949 649.751 984.187Z" fill="#C4C4C4"/>
<path d="M616.431 61.7503L569.431 108.75L516.031 93.2503C514.231 92.7503 513.631 90.4503 514.931 89.0503L557.831 46.1503C558.431 45.5503 559.431 45.2503 560.331 45.5503L616.431 61.7503Z" fill="#F6A143" stroke="#17005E" stroke-width="1.5" stroke-miterlimit="10" stroke-linecap="round" stroke-linejoin="round"/>
<path d="M520.832 89.1498L558.432 51.5498L571.232 102.45L520.832 89.1498Z" fill="#17005E" stroke="#17005E" stroke-width="1.5" stroke-miterlimit="10" stroke-linecap="round" stroke-linejoin="round"/>
<path d="M523.43 86.5501C527.53 82.4501 533.63 80.9501 539.13 82.5501L539.93 82.7501C551.23 86.1501 561.43 92.2501 569.73 100.55L573.63 104.45L520.73 89.1501L523.43 86.5501Z" fill="#DEFAE5" stroke="#17005E" stroke-width="1.5" stroke-miterlimit="10" stroke-linecap="round" stroke-linejoin="round"/>
<path d="M554.73 55.1502C550.63 59.2502 549.13 65.3502 550.73 70.8502L550.93 71.6502C554.33 82.9502 560.43 93.1502 568.73 101.45L572.63 105.35L557.33 52.4502L554.73 55.1502Z" fill="#DEFAE5" stroke="#17005E" stroke-width="1.5" stroke-miterlimit="10" stroke-linecap="round" stroke-linejoin="round"/>
<path d="M617.731 60.4498L569.431 108.75L553.231 52.7498C552.931 51.8498 553.231 50.9498 553.831 50.2498L598.131 5.94982C599.431 4.64982 601.731 5.14983 602.331 7.04983L617.731 60.4498Z" fill="#F6A143" stroke="#17005E" stroke-width="1.5" stroke-miterlimit="10" stroke-linecap="round" stroke-linejoin="round"/>
<path d="M606.63 60.3502L576.33 90.6502C575.43 91.5502 573.83 91.1502 573.43 89.9502L563.13 54.4502C562.83 53.4502 563.13 52.2502 563.93 51.5502L594.23 21.2502C595.13 20.3502 596.73 20.7502 597.13 21.9502L607.43 57.4502C607.63 58.4502 607.43 59.5502 606.63 60.3502Z" fill="#F6A143" stroke="#17005E" stroke-width="1.5" stroke-miterlimit="10" stroke-linecap="round" stroke-linejoin="round"/>
<path d="M617.926 59.3011L566.732 110.495L570.197 113.96L621.391 62.7659L617.926 59.3011Z" fill="#F6A143" stroke="#17005E" stroke-width="1.5" stroke-miterlimit="10" stroke-linecap="round" stroke-linejoin="round"/>
<path d="M617.927 59.2834L572.107 105.104L575.572 108.568L621.392 62.7482L617.927 59.2834Z" fill="#F6A143" stroke="#17005E" stroke-width="1.5" stroke-miterlimit="10" stroke-linecap="round" stroke-linejoin="round"/>
<path d="M585.138 689.423L517.838 644.623L514.238 591.123C514.138 589.323 516.338 588.623 518.238 589.923L579.838 630.823C580.738 631.423 581.338 632.323 581.438 633.223L585.138 689.423Z" fill="#17005E" stroke="#17005E" stroke-width="1.5" stroke-miterlimit="10" stroke-linecap="round" stroke-linejoin="round"/>
<path d="M520.336 595.723L574.236 631.523L525.136 646.223L520.336 595.723Z" fill="#DEFAE5" stroke="#17005E" stroke-width="1.5" stroke-miterlimit="10" stroke-linecap="round" stroke-linejoin="round"/>
<path d="M524.038 598.223C529.938 602.123 533.838 608.123 534.138 613.723V614.523C534.838 625.823 532.138 636.223 526.538 644.723L523.838 648.723L520.238 595.723L524.038 598.223Z" fill="#DEFAE5" stroke="#17005E" stroke-width="1.5" stroke-miterlimit="10" stroke-linecap="round" stroke-linejoin="round"/>
<path d="M585.836 618.523C579.936 613.423 571.836 611.823 564.836 614.223L563.836 614.623C549.736 619.523 537.436 628.023 527.836 639.123L523.336 644.323L589.636 621.723L585.836 618.523Z" fill="#DEFAE5" stroke="#17005E" stroke-width="1.5" stroke-miterlimit="10" stroke-linecap="round" stroke-linejoin="round"/>
<path d="M587.136 690.623L517.836 644.623L589.636 618.123C591.136 617.623 592.736 617.823 594.036 618.623L654.636 658.923C657.336 660.723 656.836 664.923 653.836 666.023L587.136 690.623Z" fill="#17005E" stroke="#17005E" stroke-width="1.5" stroke-miterlimit="10" stroke-linecap="round" stroke-linejoin="round"/>
<path d="M589.737 681.023L541.537 649.023L592.637 629.423L640.837 661.523L589.737 681.023Z" fill="#17005E" stroke="#17005E" stroke-width="1.5" stroke-miterlimit="10" stroke-linecap="round" stroke-linejoin="round"/>
<path d="M588.628 690.681L515.166 641.862L511.845 646.86L585.307 695.678L588.628 690.681Z" fill="#17005E" stroke="#17005E" stroke-width="1.5" stroke-miterlimit="10" stroke-linecap="round" stroke-linejoin="round"/>
<path d="M588.587 690.698L522.871 647.027L519.55 652.025L585.266 695.696L588.587 690.698Z" fill="#17005E" stroke="#17005E" stroke-width="1.5" stroke-miterlimit="10" stroke-linecap="round" stroke-linejoin="round"/>
<path d="M556.871 408.792H436.971V403.792C436.971 400.492 439.671 397.892 442.871 397.892H556.771V408.792H556.871Z" fill="#17005E" stroke="#17005E" stroke-width="1.5" stroke-miterlimit="10" stroke-linecap="round" stroke-linejoin="round"/>
<path d="M558.371 408.791H473.371L492.971 339.991C493.571 337.991 495.271 336.691 497.371 336.691H580.571C583.571 336.691 585.771 339.591 584.971 342.491L568.171 401.491C566.771 405.791 562.871 408.791 558.371 408.791Z" fill="#17005E" stroke="#17005E" stroke-width="1.5" stroke-miterlimit="10" stroke-linecap="round" stroke-linejoin="round"/>
<path d="M558.172 390.792H486.172L498.772 346.492C499.172 345.192 500.272 344.392 501.572 344.392H572.372C574.272 344.392 575.672 346.292 575.172 348.092L564.372 386.092C563.572 388.892 561.072 390.792 558.172 390.792Z" fill="#F6A143" stroke="#17005E" stroke-width="1.5" stroke-miterlimit="10" stroke-linecap="round" stroke-linejoin="round"/>
<path d="M528.17 359.691L538.17 367.091C538.87 367.591 538.47 368.691 537.57 369.091L523.47 374.891C522.47 375.291 521.67 374.691 521.97 373.791L526.07 360.491C526.27 359.691 527.47 359.191 528.17 359.691Z" fill="#F6A143" stroke="#17005E" stroke-width="1.5" stroke-miterlimit="10" stroke-linecap="round" stroke-linejoin="round"/>
<path d="M549.872 362.592L556.472 367.292C556.872 367.592 556.672 368.392 556.072 368.592L546.672 372.592C546.072 372.892 545.472 372.492 545.672 371.892L548.572 363.192C548.672 362.592 549.472 362.192 549.872 362.592Z" fill="#17005E" stroke="#17005E" stroke-width="1.5" stroke-miterlimit="10" stroke-linecap="round" stroke-linejoin="round"/>
<path d="M556.672 372.391L559.572 363.691H561.272L558.372 372.391H556.672Z" fill="#17005E" stroke="#17005E" stroke-width="1.5" stroke-miterlimit="10" stroke-linecap="round" stroke-linejoin="round"/>
<path d="M510.972 372.992L504.372 368.292C503.972 367.992 504.172 367.192 504.772 366.992L514.172 362.992C514.772 362.692 515.372 363.092 515.172 363.692L512.272 372.392C512.272 372.992 511.472 373.292 510.972 372.992Z" fill="#17005E" stroke="#17005E" stroke-width="1.5" stroke-miterlimit="10" stroke-linecap="round" stroke-linejoin="round"/>
<path d="M504.17 363.191L501.37 371.891H499.57L502.47 363.191H504.17Z" fill="#17005E" stroke="#17005E" stroke-width="1.5" stroke-miterlimit="10" stroke-linecap="round" stroke-linejoin="round"/>
<path d="M780.623 261.329L768.223 248.929C765.723 246.429 765.723 242.329 768.223 239.829L769.623 238.429C772.123 235.929 776.223 235.929 778.723 238.429L791.123 250.729C793.623 253.229 793.623 257.329 791.123 259.829L789.723 261.229C787.223 263.829 783.123 263.829 780.623 261.329Z" fill="#E9D1FA"/>
<path d="M367.035 578.65L386.435 559.25C388.935 556.75 393.035 556.75 395.535 559.25L397.235 560.95C399.735 563.45 399.735 567.55 397.235 570.05L377.835 589.45C375.335 591.95 371.235 591.95 368.735 589.45L367.035 587.75C364.535 585.25 364.535 581.15 367.035 578.65Z" fill="#E9D1FA"/>
<path d="M423.238 725.723L442.638 706.323C445.138 703.823 449.238 703.823 451.738 706.323L453.438 708.023C455.938 710.523 455.938 714.623 453.438 717.123L434.038 736.523C431.538 739.023 427.438 739.023 424.938 736.523L423.238 734.823C420.738 732.323 420.738 728.223 423.238 725.723Z" fill="#E9D1FA"/>
<path d="M778.848 550.85C785.751 550.85 791.348 545.253 791.348 538.35C791.348 531.446 785.751 525.85 778.848 525.85C771.944 525.85 766.348 531.446 766.348 538.35C766.348 545.253 771.944 550.85 778.848 550.85Z" fill="#F6A143"/>
<path d="M124.335 759.05C130.3 759.05 135.135 754.215 135.135 748.25C135.135 742.286 130.3 737.45 124.335 737.45C118.37 737.45 113.535 742.286 113.535 748.25C113.535 754.215 118.37 759.05 124.335 759.05Z" fill="#F6A143"/>
<path d="M693.931 22.35C699.896 22.35 704.731 17.5147 704.731 11.55C704.731 5.58534 699.896 0.75 693.931 0.75C687.966 0.75 683.131 5.58534 683.131 11.55C683.131 17.5147 687.966 22.35 693.931 22.35Z" fill="#F6A143"/>
<path d="M383.571 337.992L374.071 328.492C373.571 327.992 372.871 327.692 372.271 327.692C371.571 327.692 370.971 327.992 370.471 328.492L362.771 336.192L355.071 328.492C355.071 328.492 355.071 328.492 354.971 328.492C354.871 328.392 354.771 328.292 354.671 328.192C354.571 328.092 354.471 328.092 354.371 327.992L354.271 327.892C354.171 327.892 354.071 327.792 353.971 327.792H353.871C353.671 327.792 353.571 327.792 353.371 327.792C353.171 327.792 353.071 327.792 352.871 327.792C352.771 327.792 352.771 327.792 352.671 327.792C352.571 327.792 352.471 327.892 352.371 327.892C352.271 327.892 352.271 327.992 352.171 327.992C352.071 327.992 351.971 328.092 351.871 328.092C351.771 328.192 351.571 328.292 351.471 328.392L343.771 336.092L336.071 328.392C335.071 327.392 333.471 327.392 332.471 328.392C331.471 329.392 331.471 330.992 332.471 331.992L341.971 341.492C342.471 341.992 343.171 342.292 343.771 342.292C344.471 342.292 345.071 341.992 345.571 341.492L353.271 333.792L360.971 341.492C360.971 341.492 360.971 341.492 361.071 341.592C361.171 341.692 361.271 341.792 361.371 341.892C361.471 341.992 361.571 341.992 361.671 342.092L361.771 342.192C361.871 342.192 361.971 342.292 362.071 342.292H362.171C362.371 342.292 362.471 342.292 362.671 342.292C362.871 342.292 362.971 342.292 363.171 342.292C363.271 342.292 363.271 342.292 363.371 342.292C363.471 342.292 363.571 342.192 363.671 342.192C363.771 342.192 363.771 342.092 363.871 342.092C363.971 342.092 364.071 341.992 364.171 341.992C364.271 341.892 364.471 341.792 364.571 341.692L372.271 333.992L379.971 341.692C380.971 342.692 382.571 342.692 383.571 341.692C384.571 340.592 384.571 338.992 383.571 337.992Z" fill="#F6A143"/>
<path d="M383.571 323.191L374.071 313.691C373.571 313.191 372.871 312.891 372.271 312.891C371.571 312.891 370.971 313.191 370.471 313.691L362.771 321.391L355.071 313.691C355.071 313.691 355.071 313.691 354.971 313.691C354.871 313.591 354.771 313.491 354.671 313.391C354.571 313.291 354.471 313.291 354.371 313.191L354.271 313.091C354.171 313.091 354.071 312.991 353.971 312.991H353.871C353.671 312.991 353.571 312.991 353.371 312.991C353.171 312.991 353.071 312.991 352.871 312.991C352.771 312.991 352.771 312.991 352.671 312.991C352.571 312.991 352.471 313.091 352.371 313.091C352.271 313.091 352.271 313.191 352.171 313.191C352.071 313.191 351.971 313.291 351.871 313.291C351.771 313.391 351.571 313.491 351.471 313.591L343.771 321.291L336.071 313.591C335.071 312.591 333.471 312.591 332.471 313.591C331.471 314.591 331.471 316.191 332.471 317.191L341.971 326.691C342.471 327.191 343.171 327.491 343.771 327.491C344.471 327.491 345.071 327.191 345.571 326.691L353.271 318.991L360.971 326.691C360.971 326.691 360.971 326.691 361.071 326.791C361.171 326.891 361.271 326.991 361.371 327.091C361.471 327.191 361.571 327.191 361.671 327.291L361.771 327.391C361.871 327.391 361.971 327.491 362.071 327.491H362.171C362.371 327.491 362.471 327.491 362.671 327.491C362.871 327.491 362.971 327.491 363.171 327.491C363.271 327.491 363.271 327.491 363.371 327.491C363.471 327.491 363.571 327.391 363.671 327.391C363.771 327.391 363.771 327.291 363.871 327.291C363.971 327.291 364.071 327.191 364.171 327.191C364.271 327.091 364.471 326.991 364.571 326.891L372.271 319.191L379.971 326.891C380.971 327.891 382.571 327.891 383.571 326.891C384.571 325.791 384.571 324.191 383.571 323.191Z" fill="#F6A143"/>
<path d="M678.636 355.63H687.336C687.836 355.63 688.236 355.43 688.536 355.13C688.836 354.83 689.036 354.43 689.036 353.93V346.93H696.036C696.136 346.93 696.236 346.93 696.336 346.93C696.436 346.93 696.436 346.93 696.536 346.83H696.636C696.736 346.83 696.736 346.73 696.836 346.73H696.936C697.036 346.63 697.136 346.63 697.136 346.53C697.236 346.43 697.236 346.43 697.336 346.33C697.336 346.33 697.336 346.23 697.436 346.23C697.436 346.13 697.536 346.13 697.536 346.03V345.93C697.536 345.83 697.536 345.83 697.636 345.73C697.636 345.63 697.636 345.53 697.636 345.43V338.43H704.636C705.536 338.43 706.336 337.73 706.336 336.73C706.336 335.83 705.636 335.03 704.636 335.03H695.936C695.436 335.03 695.036 335.23 694.736 335.53C694.436 335.83 694.236 336.23 694.236 336.73V343.73H687.236C687.236 343.73 687.236 343.73 687.136 343.73C687.036 343.73 686.936 343.73 686.836 343.73C686.736 343.73 686.736 343.73 686.636 343.83H686.536C686.436 343.83 686.436 343.93 686.336 343.93H686.236C686.136 344.03 686.036 344.03 686.036 344.13C685.936 344.23 685.936 344.23 685.836 344.33C685.836 344.33 685.836 344.43 685.736 344.43C685.736 344.53 685.636 344.53 685.636 344.63V344.73C685.636 344.83 685.636 344.83 685.536 344.93C685.536 345.03 685.536 345.13 685.536 345.23V352.23H678.536C677.636 352.23 676.836 352.93 676.836 353.93C677.036 354.93 677.736 355.63 678.636 355.63Z" fill="#F6A143"/>
<path d="M685.437 362.431H694.137C694.637 362.431 695.037 362.231 695.337 361.931C695.637 361.631 695.837 361.231 695.837 360.731V353.731H702.837C702.937 353.731 703.037 353.731 703.137 353.731C703.237 353.731 703.237 353.731 703.337 353.631H703.437C703.537 353.631 703.537 353.531 703.637 353.531H703.737C703.837 353.431 703.937 353.431 703.937 353.331C704.037 353.231 704.037 353.231 704.137 353.131C704.137 353.131 704.137 353.031 704.237 353.031C704.237 352.931 704.337 352.931 704.337 352.831V352.731C704.337 352.631 704.337 352.631 704.437 352.531C704.437 352.431 704.437 352.331 704.437 352.231V345.231H711.437C712.337 345.231 713.137 344.531 713.137 343.531C713.137 342.631 712.437 341.831 711.437 341.831H702.737C702.237 341.831 701.837 342.031 701.537 342.331C701.237 342.631 701.037 343.031 701.037 343.531V350.531H694.037C694.037 350.531 694.037 350.531 693.937 350.531C693.837 350.531 693.737 350.531 693.637 350.531C693.537 350.531 693.537 350.531 693.437 350.631H693.337C693.237 350.631 693.237 350.731 693.137 350.731H693.037C692.937 350.831 692.837 350.831 692.837 350.931C692.737 351.031 692.737 351.031 692.637 351.131C692.637 351.131 692.637 351.231 692.537 351.231C692.537 351.331 692.437 351.331 692.437 351.431V351.531C692.437 351.631 692.437 351.631 692.337 351.731C692.337 351.831 692.337 351.931 692.337 352.031V359.031H685.337C684.437 359.031 683.637 359.731 683.637 360.731C683.737 361.631 684.537 362.431 685.437 362.431Z" fill="#F6A143"/>
<path d="M651.431 185.65C650.931 185.15 650.631 184.55 650.631 183.85V172.95H639.731C638.331 172.95 637.131 171.75 637.131 170.35V156.95C637.131 155.55 638.231 154.35 639.731 154.35C641.131 154.35 642.331 155.45 642.331 156.95V167.85H653.231C654.631 167.85 655.831 168.95 655.831 170.45V181.35H666.731C668.131 181.35 669.331 182.45 669.331 183.95C669.331 185.35 668.231 186.55 666.731 186.55H653.331C652.631 186.45 651.931 186.15 651.431 185.65Z" fill="#E9D1FA"/>
<path d="M661.231 175.95C660.731 175.45 660.431 174.85 660.431 174.15V163.25H649.631C648.231 163.25 647.031 162.15 647.031 160.65V147.25C647.031 145.85 648.131 144.65 649.631 144.65C651.031 144.65 652.231 145.75 652.231 147.25V158.15H663.131C664.531 158.15 665.731 159.35 665.731 160.75V171.65H676.631C678.031 171.65 679.231 172.75 679.231 174.25C679.231 175.65 678.131 176.85 676.631 176.85H663.231C662.331 176.65 661.731 176.35 661.231 175.95Z" fill="#E9D1FA"/>
<path d="M148.636 476.65C149.436 476.65 150.236 476.95 150.836 477.55L160.236 486.95L169.636 477.55C170.836 476.35 172.836 476.35 174.136 477.55L185.836 489.25C187.036 490.45 187.036 492.45 185.836 493.75C184.636 494.95 182.636 494.95 181.336 493.75L171.936 484.35L162.536 493.75C161.336 494.95 159.336 494.95 158.036 493.75L148.636 484.35L139.236 493.75C138.036 494.95 136.036 494.95 134.736 493.75C133.536 492.55 133.536 490.55 134.736 489.25L146.436 477.55C147.036 476.95 147.836 476.65 148.636 476.65Z" fill="#E9D1FA"/>
<path d="M148.636 493.65C149.436 493.65 150.236 493.95 150.836 494.55L160.236 503.95L169.636 494.55C170.836 493.35 172.836 493.35 174.136 494.55L185.836 506.25C187.036 507.45 187.036 509.45 185.836 510.75C184.636 511.95 182.636 511.95 181.336 510.75L171.936 501.35L162.536 510.75C161.336 511.95 159.336 511.95 158.036 510.75L148.636 501.35L139.236 510.75C138.036 511.95 136.036 511.95 134.736 510.75C133.536 509.55 133.536 507.55 134.736 506.25L146.436 494.55C147.036 493.95 147.836 493.65 148.636 493.65Z" fill="#E9D1FA"/>
<path d="M404.836 565.023C406.769 565.023 408.336 563.456 408.336 561.523C408.336 559.59 406.769 558.023 404.836 558.023C402.903 558.023 401.336 559.59 401.336 561.523C401.336 563.456 402.903 565.023 404.836 565.023Z" fill="#E9D1FA"/>
<path d="M415.637 565.023C417.57 565.023 419.137 563.456 419.137 561.523C419.137 559.59 417.57 558.023 415.637 558.023C413.704 558.023 412.137 559.59 412.137 561.523C412.137 563.456 413.704 565.023 415.637 565.023Z" fill="#E9D1FA"/>
<path d="M426.438 565.023C428.37 565.023 429.938 563.456 429.938 561.523C429.938 559.59 428.37 558.023 426.438 558.023C424.505 558.023 422.938 559.59 422.938 561.523C422.938 563.456 424.505 565.023 426.438 565.023Z" fill="#E9D1FA"/>
<path d="M404.836 544.123C406.769 544.123 408.336 542.556 408.336 540.623C408.336 538.69 406.769 537.123 404.836 537.123C402.903 537.123 401.336 538.69 401.336 540.623C401.336 542.556 402.903 544.123 404.836 544.123Z" fill="#E9D1FA"/>
<path d="M415.637 544.123C417.57 544.123 419.137 542.556 419.137 540.623C419.137 538.69 417.57 537.123 415.637 537.123C413.704 537.123 412.137 538.69 412.137 540.623C412.137 542.556 413.704 544.123 415.637 544.123Z" fill="#E9D1FA"/>
<path d="M426.438 544.123C428.37 544.123 429.938 542.556 429.938 540.623C429.938 538.69 428.37 537.123 426.438 537.123C424.505 537.123 422.938 538.69 422.938 540.623C422.938 542.556 424.505 544.123 426.438 544.123Z" fill="#E9D1FA"/>
<path d="M404.836 554.523C406.769 554.523 408.336 552.956 408.336 551.023C408.336 549.09 406.769 547.523 404.836 547.523C402.903 547.523 401.336 549.09 401.336 551.023C401.336 552.956 402.903 554.523 404.836 554.523Z" fill="#E9D1FA"/>
<path d="M415.637 554.523C417.57 554.523 419.137 552.956 419.137 551.023C419.137 549.09 417.57 547.523 415.637 547.523C413.704 547.523 412.137 549.09 412.137 551.023C412.137 552.956 413.704 554.523 415.637 554.523Z" fill="#E9D1FA"/>
<path d="M426.438 554.523C428.37 554.523 429.938 552.956 429.938 551.023C429.938 549.09 428.37 547.523 426.438 547.523C424.505 547.523 422.938 549.09 422.938 551.023C422.938 552.956 424.505 554.523 426.438 554.523Z" fill="#E9D1FA"/>
<path d="M555.572 274.791C558.775 274.791 561.372 272.195 561.372 268.991C561.372 265.788 558.775 263.191 555.572 263.191C552.368 263.191 549.771 265.788 549.771 268.991C549.771 272.195 552.368 274.791 555.572 274.791Z" fill="#E9D1FA"/>
<path d="M572.271 274.791C575.474 274.791 578.071 272.195 578.071 268.991C578.071 265.788 575.474 263.191 572.271 263.191C569.067 263.191 566.471 265.788 566.471 268.991C566.471 272.195 569.067 274.791 572.271 274.791Z" fill="#E9D1FA"/>
<path d="M555.572 291.791C558.775 291.791 561.372 289.195 561.372 285.991C561.372 282.788 558.775 280.191 555.572 280.191C552.368 280.191 549.771 282.788 549.771 285.991C549.771 289.195 552.368 291.791 555.572 291.791Z" fill="#E9D1FA"/>
<path d="M572.271 291.791C575.474 291.791 578.071 289.195 578.071 285.991C578.071 282.788 575.474 280.191 572.271 280.191C569.067 280.191 566.471 282.788 566.471 285.991C566.471 289.195 569.067 291.791 572.271 291.791Z" fill="#E9D1FA"/>
<path d="M485.138 861.423C488.673 861.423 491.538 858.558 491.538 855.023C491.538 851.488 488.673 848.623 485.138 848.623C481.604 848.623 478.738 851.488 478.738 855.023C478.738 858.558 481.604 861.423 485.138 861.423Z" fill="#E9D1FA"/>
<path d="M498.138 874.423C501.673 874.423 504.538 871.558 504.538 868.023C504.538 864.488 501.673 861.623 498.138 861.623C494.604 861.623 491.738 864.488 491.738 868.023C491.738 871.558 494.604 874.423 498.138 874.423Z" fill="#E9D1FA"/>
<path d="M471.837 874.623C475.372 874.623 478.238 871.758 478.238 868.223C478.238 864.689 475.372 861.823 471.837 861.823C468.303 861.823 465.438 864.689 465.438 868.223C465.438 871.758 468.303 874.623 471.837 874.623Z" fill="#E9D1FA"/>
<path d="M484.837 887.623C488.372 887.623 491.238 884.758 491.238 881.223C491.238 877.689 488.372 874.823 484.837 874.823C481.303 874.823 478.438 877.689 478.438 881.223C478.438 884.758 481.303 887.623 484.837 887.623Z" fill="#E9D1FA"/>
<path d="M310.036 690.851H128.836C123.836 690.851 119.836 686.851 119.836 681.851V559.851C119.836 554.851 123.836 550.851 128.836 550.851H310.036C315.036 550.851 319.036 554.851 319.036 559.851V681.751C319.036 686.751 315.036 690.851 310.036 690.851Z" fill="#F6A143" stroke="#17005E" stroke-width="1.5" stroke-miterlimit="10" stroke-linecap="round" stroke-linejoin="round"/>
<path d="M205.335 591.75L237.035 609.95C239.235 611.15 239.235 614.25 237.035 615.55L205.335 633.75C203.235 634.95 200.535 633.45 200.535 630.95V594.55C200.535 592.05 203.235 590.55 205.335 591.75Z" fill="#F5A3D2" stroke="#17005E" stroke-width="1.5" stroke-miterlimit="10" stroke-linecap="round" stroke-linejoin="round"/>
<path d="M218.936 672.251C220.096 672.251 221.036 671.311 221.036 670.151C221.036 668.991 220.096 668.051 218.936 668.051C217.776 668.051 216.836 668.991 216.836 670.151C216.836 671.311 217.776 672.251 218.936 672.251Z" fill="#17005E" stroke="#17005E" stroke-width="1.5" stroke-miterlimit="10" stroke-linecap="round" stroke-linejoin="round"/>
<path d="M156.336 670.15H300.736" stroke="#17005E" stroke-width="1.5" stroke-miterlimit="10" stroke-linecap="round" stroke-linejoin="round"/>
<path d="M292.635 562.351H307.535" stroke="#17005E" stroke-width="1.5" stroke-miterlimit="10" stroke-linecap="round" stroke-linejoin="round"/>
<path d="M292.635 568.45H307.535" stroke="#17005E" stroke-width="1.5" stroke-miterlimit="10" stroke-linecap="round" stroke-linejoin="round"/>
<path d="M292.635 574.551H307.535" stroke="#17005E" stroke-width="1.5" stroke-miterlimit="10" stroke-linecap="round" stroke-linejoin="round"/>
<path d="M144.835 665.95H134.035V674.25H144.835V665.95Z" fill="#E9D1FA" stroke="#17005E" stroke-width="1.5" stroke-miterlimit="10" stroke-linecap="round" stroke-linejoin="round"/>
<path d="M720.338 881.523H550.738C545.738 881.523 541.738 877.523 541.738 872.523V758.723C541.738 753.723 545.738 749.723 550.738 749.723H720.338C725.338 749.723 729.338 753.723 729.338 758.723V872.523C729.338 877.423 725.338 881.523 720.338 881.523Z" fill="#F5A3D2" stroke="#17005E" stroke-width="1.5" stroke-miterlimit="10" stroke-linecap="round" stroke-linejoin="round"/>
<path d="M622.337 788.224L652.137 805.324C654.137 806.524 654.137 809.424 652.137 810.624L622.337 827.724C620.337 828.924 617.837 827.424 617.837 825.124V790.824C617.737 788.524 620.337 787.024 622.337 788.224Z" fill="#E9D1FA" stroke="#17005E" stroke-width="1.5" stroke-miterlimit="10" stroke-linecap="round" stroke-linejoin="round"/>
<path d="M678.836 864.023C679.941 864.023 680.836 863.128 680.836 862.023C680.836 860.919 679.941 860.023 678.836 860.023C677.731 860.023 676.836 860.919 676.836 862.023C676.836 863.128 677.731 864.023 678.836 864.023Z" fill="#17005E" stroke="#17005E" stroke-width="1.5" stroke-miterlimit="10" stroke-linecap="round" stroke-linejoin="round"/>
<path d="M576.137 862.023H712.137" stroke="#17005E" stroke-width="1.5" stroke-miterlimit="10" stroke-linecap="round" stroke-linejoin="round"/>
<path d="M704.438 760.523H718.538" stroke="#17005E" stroke-width="1.5" stroke-miterlimit="10" stroke-linecap="round" stroke-linejoin="round"/>
<path d="M704.438 766.223H718.538" stroke="#17005E" stroke-width="1.5" stroke-miterlimit="10" stroke-linecap="round" stroke-linejoin="round"/>
<path d="M704.438 771.923H718.538" stroke="#17005E" stroke-width="1.5" stroke-miterlimit="10" stroke-linecap="round" stroke-linejoin="round"/>
<path d="M565.337 858.123H555.137V866.023H565.337V858.123Z" fill="#F6A143" stroke="#17005E" stroke-width="1.5" stroke-miterlimit="10" stroke-linecap="round" stroke-linejoin="round"/>
</svg>
