<svg width="1829" height="726" viewBox="0 0 1829 434" fill="none" xmlns="http://www.w3.org/2000/svg">
<path fill-rule="evenodd" clip-rule="evenodd" d="M1520.84 833.187H307.454C287.697 771.7 277.027 706.139 277.027 638.086C277.027 286.215 562.275 0.967529 914.146 0.967529C1266.02 0.967529 1551.27 286.215 1551.27 638.086C1551.27 706.139 1540.6 771.7 1520.84 833.187Z" fill="#C4C4C4"/>
<path d="M1330.52 173.987L1283.52 220.987L1230.12 205.487C1228.32 204.987 1227.72 202.687 1229.02 201.287L1271.92 158.387C1272.52 157.787 1273.52 157.487 1274.42 157.787L1330.52 173.987Z" fill="#F6A143" stroke="#17005E" stroke-width="1.5" stroke-miterlimit="10" stroke-linecap="round" stroke-linejoin="round"/>
<path d="M1234.92 201.387L1272.52 163.787L1285.32 214.687L1234.92 201.387Z" fill="#17005E" stroke="#17005E" stroke-width="1.5" stroke-miterlimit="10" stroke-linecap="round" stroke-linejoin="round"/>
<path d="M1237.52 198.786C1241.62 194.686 1247.72 193.186 1253.22 194.786L1254.02 194.986C1265.32 198.386 1275.52 204.486 1283.82 212.786L1287.72 216.686L1234.82 201.386L1237.52 198.786Z" fill="#DEFAE5" stroke="#17005E" stroke-width="1.5" stroke-miterlimit="10" stroke-linecap="round" stroke-linejoin="round"/>
<path d="M1268.82 167.387C1264.72 171.487 1263.22 177.587 1264.82 183.087L1265.02 183.887C1268.42 195.187 1274.52 205.387 1282.82 213.687L1286.72 217.587L1271.42 164.687L1268.82 167.387Z" fill="#DEFAE5" stroke="#17005E" stroke-width="1.5" stroke-miterlimit="10" stroke-linecap="round" stroke-linejoin="round"/>
<path d="M1331.82 172.687L1283.52 220.987L1267.32 164.987C1267.02 164.087 1267.32 163.187 1267.92 162.487L1312.22 118.187C1313.52 116.887 1315.82 117.387 1316.42 119.287L1331.82 172.687Z" fill="#F6A143" stroke="#17005E" stroke-width="1.5" stroke-miterlimit="10" stroke-linecap="round" stroke-linejoin="round"/>
<path d="M1320.72 172.587L1290.42 202.887C1289.52 203.787 1287.92 203.387 1287.52 202.187L1277.22 166.687C1276.92 165.687 1277.22 164.487 1278.02 163.787L1308.32 133.487C1309.22 132.587 1310.82 132.987 1311.22 134.187L1321.52 169.687C1321.72 170.687 1321.52 171.787 1320.72 172.587Z" fill="#F6A143" stroke="#17005E" stroke-width="1.5" stroke-miterlimit="10" stroke-linecap="round" stroke-linejoin="round"/>
<path d="M1332.02 171.537L1280.82 222.731L1284.29 226.196L1335.48 175.002L1332.02 171.537Z" fill="#F6A143" stroke="#17005E" stroke-width="1.5" stroke-miterlimit="10" stroke-linecap="round" stroke-linejoin="round"/>
<path d="M1332.02 171.52L1286.2 217.34L1289.66 220.805L1335.48 174.985L1332.02 171.52Z" fill="#F6A143" stroke="#17005E" stroke-width="1.5" stroke-miterlimit="10" stroke-linecap="round" stroke-linejoin="round"/>
<path d="M472.038 411.237L404.738 366.437L401.138 312.937C401.038 311.137 403.238 310.437 405.138 311.737L466.738 352.637C467.638 353.237 468.238 354.136 468.338 355.036L472.038 411.237Z" fill="#17005E" stroke="#17005E" stroke-width="1.5" stroke-miterlimit="10" stroke-linecap="round" stroke-linejoin="round"/>
<path d="M407.238 317.537L461.138 353.337L412.038 368.037L407.238 317.537Z" fill="#DEFAE5" stroke="#17005E" stroke-width="1.5" stroke-miterlimit="10" stroke-linecap="round" stroke-linejoin="round"/>
<path d="M410.939 320.037C416.839 323.937 420.739 329.937 421.039 335.537V336.337C421.739 347.637 419.039 358.037 413.439 366.537L410.739 370.537L407.139 317.537L410.939 320.037Z" fill="#DEFAE5" stroke="#17005E" stroke-width="1.5" stroke-miterlimit="10" stroke-linecap="round" stroke-linejoin="round"/>
<path d="M472.738 340.337C466.838 335.237 458.738 333.637 451.738 336.037L450.738 336.437C436.638 341.337 424.338 349.837 414.738 360.937L410.238 366.137L476.538 343.537L472.738 340.337Z" fill="#DEFAE5" stroke="#17005E" stroke-width="1.5" stroke-miterlimit="10" stroke-linecap="round" stroke-linejoin="round"/>
<path d="M474.038 412.437L404.738 366.437L476.538 339.937C478.038 339.437 479.638 339.637 480.938 340.437L541.538 380.737C544.238 382.537 543.738 386.737 540.738 387.837L474.038 412.437Z" fill="#17005E" stroke="#17005E" stroke-width="1.5" stroke-miterlimit="10" stroke-linecap="round" stroke-linejoin="round"/>
<path d="M476.639 402.837L428.439 370.837L479.539 351.237L527.739 383.337L476.639 402.837Z" fill="#17005E" stroke="#17005E" stroke-width="1.5" stroke-miterlimit="10" stroke-linecap="round" stroke-linejoin="round"/>
<path d="M475.53 412.495L402.068 363.676L398.747 368.674L472.209 417.492L475.53 412.495Z" fill="#17005E" stroke="#17005E" stroke-width="1.5" stroke-miterlimit="10" stroke-linecap="round" stroke-linejoin="round"/>
<path d="M475.487 412.512L409.771 368.841L406.45 373.838L472.166 417.509L475.487 412.512Z" fill="#17005E" stroke="#17005E" stroke-width="1.5" stroke-miterlimit="10" stroke-linecap="round" stroke-linejoin="round"/>
<path d="M1799.59 363.676H1679.69V358.676C1679.69 355.376 1682.39 352.776 1685.59 352.776H1799.49V363.676H1799.59Z" fill="#17005E" stroke="#17005E" stroke-width="1.5" stroke-miterlimit="10" stroke-linecap="round" stroke-linejoin="round"/>
<path d="M1801.09 363.676H1716.09L1735.69 294.876C1736.29 292.876 1737.99 291.576 1740.09 291.576H1823.29C1826.29 291.576 1828.49 294.476 1827.69 297.376L1810.89 356.376C1809.49 360.676 1805.59 363.676 1801.09 363.676Z" fill="#17005E" stroke="#17005E" stroke-width="1.5" stroke-miterlimit="10" stroke-linecap="round" stroke-linejoin="round"/>
<path d="M1800.89 345.676H1728.89L1741.49 301.376C1741.89 300.076 1742.99 299.276 1744.29 299.276H1815.09C1816.99 299.276 1818.39 301.176 1817.89 302.976L1807.09 340.976C1806.29 343.776 1803.79 345.676 1800.89 345.676Z" fill="#F6A143" stroke="#17005E" stroke-width="1.5" stroke-miterlimit="10" stroke-linecap="round" stroke-linejoin="round"/>
<path d="M1770.89 314.576L1780.89 321.976C1781.59 322.476 1781.19 323.576 1780.29 323.976L1766.19 329.776C1765.19 330.176 1764.39 329.576 1764.69 328.676L1768.79 315.376C1768.99 314.576 1770.19 314.076 1770.89 314.576Z" fill="#F6A143" stroke="#17005E" stroke-width="1.5" stroke-miterlimit="10" stroke-linecap="round" stroke-linejoin="round"/>
<path d="M1792.59 317.476L1799.19 322.176C1799.59 322.476 1799.39 323.276 1798.79 323.476L1789.39 327.476C1788.79 327.776 1788.19 327.376 1788.39 326.776L1791.29 318.076C1791.39 317.476 1792.19 317.076 1792.59 317.476Z" fill="#17005E" stroke="#17005E" stroke-width="1.5" stroke-miterlimit="10" stroke-linecap="round" stroke-linejoin="round"/>
<path d="M1799.39 327.276L1802.29 318.576H1803.99L1801.09 327.276H1799.39Z" fill="#17005E" stroke="#17005E" stroke-width="1.5" stroke-miterlimit="10" stroke-linecap="round" stroke-linejoin="round"/>
<path d="M1753.69 327.876L1747.09 323.176C1746.69 322.876 1746.89 322.076 1747.49 321.876L1756.89 317.876C1757.49 317.576 1758.09 317.976 1757.89 318.576L1754.99 327.276C1754.99 327.876 1754.19 328.176 1753.69 327.876Z" fill="#17005E" stroke="#17005E" stroke-width="1.5" stroke-miterlimit="10" stroke-linecap="round" stroke-linejoin="round"/>
<path d="M1746.89 318.076L1744.09 326.776H1742.29L1745.19 318.076H1746.89Z" fill="#17005E" stroke="#17005E" stroke-width="1.5" stroke-miterlimit="10" stroke-linecap="round" stroke-linejoin="round"/>
<path d="M1519.71 242.361L1507.31 229.961C1504.81 227.461 1504.81 223.361 1507.31 220.861L1508.71 219.461C1511.21 216.961 1515.31 216.961 1517.81 219.461L1530.21 231.761C1532.71 234.261 1532.71 238.361 1530.21 240.861L1528.81 242.261C1526.31 244.861 1522.21 244.861 1519.71 242.361Z" fill="#E9D1FA"/>
<path d="M253.938 300.464L273.337 281.064C275.837 278.564 279.938 278.564 282.438 281.064L284.137 282.764C286.637 285.264 286.637 289.364 284.137 291.864L264.737 311.264C262.237 313.764 258.137 313.764 255.637 311.264L253.938 309.564C251.438 307.064 251.438 302.964 253.938 300.464Z" fill="#E9D1FA"/>
<path d="M310.139 447.537L329.539 428.137C332.039 425.637 336.139 425.637 338.639 428.137L340.339 429.837C342.839 432.337 342.839 436.437 340.339 438.937L320.939 458.337C318.439 460.837 314.339 460.837 311.839 458.337L310.139 456.637C307.639 454.137 307.639 450.037 310.139 447.537Z" fill="#E9D1FA"/>
<path d="M1492.94 663.086C1499.84 663.086 1505.44 657.49 1505.44 650.586C1505.44 643.683 1499.84 638.086 1492.94 638.086C1486.04 638.086 1480.44 643.683 1480.44 650.586C1480.44 657.49 1486.04 663.086 1492.94 663.086Z" fill="#F6A143"/>
<path d="M11.2375 480.864C17.2022 480.864 22.0375 476.029 22.0375 470.064C22.0375 464.099 17.2022 459.264 11.2375 459.264C5.27281 459.264 0.4375 464.099 0.4375 470.064C0.4375 476.029 5.27281 480.864 11.2375 480.864Z" fill="#F6A143"/>
<path d="M1408.02 134.587C1413.99 134.587 1418.82 129.751 1418.82 123.787C1418.82 117.822 1413.99 112.987 1408.02 112.987C1402.06 112.987 1397.22 117.822 1397.22 123.787C1397.22 129.751 1402.06 134.587 1408.02 134.587Z" fill="#F6A143"/>
<path d="M1626.29 292.876L1616.79 283.376C1616.29 282.876 1615.59 282.576 1614.99 282.576C1614.29 282.576 1613.69 282.876 1613.19 283.376L1605.49 291.076L1597.79 283.376C1597.79 283.376 1597.79 283.376 1597.69 283.376C1597.59 283.276 1597.49 283.176 1597.39 283.076C1597.29 282.976 1597.19 282.976 1597.09 282.876L1596.99 282.776C1596.89 282.776 1596.79 282.676 1596.69 282.676H1596.59C1596.39 282.676 1596.29 282.676 1596.09 282.676C1595.89 282.676 1595.79 282.676 1595.59 282.676C1595.49 282.676 1595.49 282.676 1595.39 282.676C1595.29 282.676 1595.19 282.776 1595.09 282.776C1594.99 282.776 1594.99 282.876 1594.89 282.876C1594.79 282.876 1594.69 282.976 1594.59 282.976C1594.49 283.076 1594.29 283.176 1594.19 283.276L1586.49 290.976L1578.79 283.276C1577.79 282.276 1576.19 282.276 1575.19 283.276C1574.19 284.276 1574.19 285.876 1575.19 286.876L1584.69 296.376C1585.19 296.876 1585.89 297.176 1586.49 297.176C1587.19 297.176 1587.79 296.876 1588.29 296.376L1595.99 288.676L1603.69 296.376C1603.69 296.376 1603.69 296.376 1603.79 296.476C1603.89 296.576 1603.99 296.676 1604.09 296.776C1604.19 296.876 1604.29 296.876 1604.39 296.976L1604.49 297.076C1604.59 297.076 1604.69 297.176 1604.79 297.176H1604.89C1605.09 297.176 1605.19 297.176 1605.39 297.176C1605.59 297.176 1605.69 297.176 1605.89 297.176C1605.99 297.176 1605.99 297.176 1606.09 297.176C1606.19 297.176 1606.29 297.076 1606.39 297.076C1606.49 297.076 1606.49 296.976 1606.59 296.976C1606.69 296.976 1606.79 296.876 1606.89 296.876C1606.99 296.776 1607.19 296.676 1607.29 296.576L1614.99 288.876L1622.69 296.576C1623.69 297.576 1625.29 297.576 1626.29 296.576C1627.29 295.476 1627.29 293.876 1626.29 292.876Z" fill="#F6A143"/>
<path d="M1626.29 278.076L1616.79 268.576C1616.29 268.076 1615.59 267.776 1614.99 267.776C1614.29 267.776 1613.69 268.076 1613.19 268.576L1605.49 276.276L1597.79 268.576C1597.79 268.576 1597.79 268.576 1597.69 268.576C1597.59 268.476 1597.49 268.376 1597.39 268.276C1597.29 268.176 1597.19 268.176 1597.09 268.076L1596.99 267.976C1596.89 267.976 1596.79 267.876 1596.69 267.876H1596.59C1596.39 267.876 1596.29 267.876 1596.09 267.876C1595.89 267.876 1595.79 267.876 1595.59 267.876C1595.49 267.876 1595.49 267.876 1595.39 267.876C1595.29 267.876 1595.19 267.976 1595.09 267.976C1594.99 267.976 1594.99 268.076 1594.89 268.076C1594.79 268.076 1594.69 268.176 1594.59 268.176C1594.49 268.276 1594.29 268.376 1594.19 268.476L1586.49 276.176L1578.79 268.476C1577.79 267.476 1576.19 267.476 1575.19 268.476C1574.19 269.476 1574.19 271.076 1575.19 272.076L1584.69 281.576C1585.19 282.076 1585.89 282.376 1586.49 282.376C1587.19 282.376 1587.79 282.076 1588.29 281.576L1595.99 273.876L1603.69 281.576C1603.69 281.576 1603.69 281.576 1603.79 281.676C1603.89 281.776 1603.99 281.876 1604.09 281.976C1604.19 282.076 1604.29 282.076 1604.39 282.176L1604.49 282.276C1604.59 282.276 1604.69 282.376 1604.79 282.376H1604.89C1605.09 282.376 1605.19 282.376 1605.39 282.376C1605.59 282.376 1605.69 282.376 1605.89 282.376C1605.99 282.376 1605.99 282.376 1606.09 282.376C1606.19 282.376 1606.29 282.276 1606.39 282.276C1606.49 282.276 1606.49 282.176 1606.59 282.176C1606.69 282.176 1606.79 282.076 1606.89 282.076C1606.99 281.976 1607.19 281.876 1607.29 281.776L1614.99 274.076L1622.69 281.776C1623.69 282.776 1625.29 282.776 1626.29 281.776C1627.29 280.676 1627.29 279.076 1626.29 278.076Z" fill="#F6A143"/>
<path d="M1539.94 434.186H1548.64C1549.14 434.186 1549.54 433.986 1549.84 433.686C1550.14 433.386 1550.34 432.986 1550.34 432.486V425.486H1557.34C1557.44 425.486 1557.54 425.486 1557.64 425.486C1557.74 425.486 1557.74 425.486 1557.84 425.386H1557.94C1558.04 425.386 1558.04 425.286 1558.14 425.286H1558.24C1558.34 425.186 1558.44 425.186 1558.44 425.086C1558.54 424.986 1558.54 424.986 1558.64 424.886C1558.64 424.886 1558.64 424.786 1558.74 424.786C1558.74 424.686 1558.84 424.686 1558.84 424.586V424.486C1558.84 424.386 1558.84 424.386 1558.94 424.286C1558.94 424.186 1558.94 424.086 1558.94 423.986V416.986H1565.94C1566.84 416.986 1567.64 416.286 1567.64 415.286C1567.64 414.386 1566.94 413.586 1565.94 413.586H1557.24C1556.74 413.586 1556.34 413.786 1556.04 414.086C1555.74 414.386 1555.54 414.786 1555.54 415.286V422.286H1548.54C1548.54 422.286 1548.54 422.286 1548.44 422.286C1548.34 422.286 1548.24 422.286 1548.14 422.286C1548.04 422.286 1548.04 422.286 1547.94 422.386H1547.84C1547.74 422.386 1547.74 422.486 1547.64 422.486H1547.54C1547.44 422.586 1547.34 422.586 1547.34 422.686C1547.24 422.786 1547.24 422.786 1547.14 422.886C1547.14 422.886 1547.14 422.986 1547.04 422.986C1547.04 423.086 1546.94 423.086 1546.94 423.186V423.286C1546.94 423.386 1546.94 423.386 1546.84 423.486C1546.84 423.586 1546.84 423.686 1546.84 423.786V430.786H1539.84C1538.94 430.786 1538.14 431.486 1538.14 432.486C1538.34 433.486 1539.04 434.186 1539.94 434.186Z" fill="#F6A143"/>
<path d="M1546.74 440.986H1555.44C1555.94 440.986 1556.34 440.786 1556.64 440.486C1556.94 440.186 1557.14 439.786 1557.14 439.286V432.286H1564.14C1564.24 432.286 1564.34 432.286 1564.44 432.286C1564.54 432.286 1564.54 432.286 1564.64 432.186H1564.74C1564.84 432.186 1564.84 432.086 1564.94 432.086H1565.04C1565.14 431.986 1565.24 431.986 1565.24 431.886C1565.34 431.786 1565.34 431.786 1565.44 431.686C1565.44 431.686 1565.44 431.586 1565.54 431.586C1565.54 431.486 1565.64 431.486 1565.64 431.386V431.286C1565.64 431.186 1565.64 431.186 1565.74 431.086C1565.74 430.986 1565.74 430.886 1565.74 430.786V423.786H1572.74C1573.64 423.786 1574.44 423.086 1574.44 422.086C1574.44 421.186 1573.74 420.386 1572.74 420.386H1564.04C1563.54 420.386 1563.14 420.586 1562.84 420.886C1562.54 421.186 1562.34 421.586 1562.34 422.086V429.086H1555.34C1555.34 429.086 1555.34 429.086 1555.24 429.086C1555.14 429.086 1555.04 429.086 1554.94 429.086C1554.84 429.086 1554.84 429.086 1554.74 429.186H1554.64C1554.54 429.186 1554.54 429.286 1554.44 429.286H1554.34C1554.24 429.386 1554.14 429.386 1554.14 429.486C1554.04 429.586 1554.04 429.586 1553.94 429.686C1553.94 429.686 1553.94 429.786 1553.84 429.786C1553.84 429.886 1553.74 429.886 1553.74 429.986V430.086C1553.74 430.186 1553.74 430.186 1553.64 430.286C1553.64 430.386 1553.64 430.486 1553.64 430.586V437.586H1546.64C1545.74 437.586 1544.94 438.286 1544.94 439.286C1545.04 440.186 1545.84 440.986 1546.74 440.986Z" fill="#F6A143"/>
<path d="M1365.52 297.886C1365.02 297.386 1364.72 296.786 1364.72 296.086V285.186H1353.82C1352.42 285.186 1351.22 283.986 1351.22 282.586V269.186C1351.22 267.786 1352.32 266.586 1353.82 266.586C1355.22 266.586 1356.42 267.686 1356.42 269.186V280.086H1367.32C1368.72 280.086 1369.92 281.186 1369.92 282.686V293.586H1380.82C1382.22 293.586 1383.42 294.686 1383.42 296.186C1383.42 297.586 1382.32 298.786 1380.82 298.786H1367.42C1366.72 298.686 1366.02 298.386 1365.52 297.886Z" fill="#E9D1FA"/>
<path d="M1375.32 288.186C1374.82 287.686 1374.52 287.086 1374.52 286.386V275.486H1363.72C1362.32 275.486 1361.12 274.386 1361.12 272.886V259.486C1361.12 258.086 1362.22 256.886 1363.72 256.886C1365.12 256.886 1366.32 257.986 1366.32 259.486V270.386H1377.22C1378.62 270.386 1379.82 271.586 1379.82 272.986V283.886H1390.72C1392.12 283.886 1393.32 284.986 1393.32 286.486C1393.32 287.886 1392.22 289.086 1390.72 289.086H1377.32C1376.42 288.886 1375.82 288.586 1375.32 288.186Z" fill="#E9D1FA"/>
<path d="M35.5383 198.464C36.3383 198.464 37.1383 198.764 37.7383 199.364L47.1383 208.764L56.5383 199.364C57.7383 198.164 59.7383 198.164 61.0383 199.364L72.7383 211.064C73.9383 212.264 73.9383 214.264 72.7383 215.564C71.5383 216.764 69.5383 216.764 68.2383 215.564L58.8383 206.164L49.4383 215.564C48.2383 216.764 46.2383 216.764 44.9383 215.564L35.5383 206.164L26.1383 215.564C24.9383 216.764 22.9383 216.764 21.6383 215.564C20.4383 214.364 20.4383 212.364 21.6383 211.064L33.3383 199.364C33.9383 198.764 34.7383 198.464 35.5383 198.464Z" fill="#E9D1FA"/>
<path d="M35.5383 215.464C36.3383 215.464 37.1383 215.764 37.7383 216.364L47.1383 225.764L56.5383 216.364C57.7383 215.164 59.7383 215.164 61.0383 216.364L72.7383 228.064C73.9383 229.264 73.9383 231.264 72.7383 232.564C71.5383 233.764 69.5383 233.764 68.2383 232.564L58.8383 223.164L49.4383 232.564C48.2383 233.764 46.2383 233.764 44.9383 232.564L35.5383 223.164L26.1383 232.564C24.9383 233.764 22.9383 233.764 21.6383 232.564C20.4383 231.364 20.4383 229.364 21.6383 228.064L33.3383 216.364C33.9383 215.764 34.7383 215.464 35.5383 215.464Z" fill="#E9D1FA"/>
<path d="M291.738 286.837C293.671 286.837 295.238 285.27 295.238 283.337C295.238 281.404 293.671 279.837 291.738 279.837C289.805 279.837 288.238 281.404 288.238 283.337C288.238 285.27 289.805 286.837 291.738 286.837Z" fill="#E9D1FA"/>
<path d="M302.539 286.837C304.472 286.837 306.039 285.27 306.039 283.337C306.039 281.404 304.472 279.837 302.539 279.837C300.606 279.837 299.039 281.404 299.039 283.337C299.039 285.27 300.606 286.837 302.539 286.837Z" fill="#E9D1FA"/>
<path d="M313.338 286.837C315.271 286.837 316.838 285.27 316.838 283.337C316.838 281.404 315.271 279.837 313.338 279.837C311.405 279.837 309.838 281.404 309.838 283.337C309.838 285.27 311.405 286.837 313.338 286.837Z" fill="#E9D1FA"/>
<path d="M291.738 265.937C293.671 265.937 295.238 264.37 295.238 262.437C295.238 260.504 293.671 258.937 291.738 258.937C289.805 258.937 288.238 260.504 288.238 262.437C288.238 264.37 289.805 265.937 291.738 265.937Z" fill="#E9D1FA"/>
<path d="M302.539 265.937C304.472 265.937 306.039 264.37 306.039 262.437C306.039 260.504 304.472 258.937 302.539 258.937C300.606 258.937 299.039 260.504 299.039 262.437C299.039 264.37 300.606 265.937 302.539 265.937Z" fill="#E9D1FA"/>
<path d="M313.338 265.937C315.271 265.937 316.838 264.37 316.838 262.437C316.838 260.504 315.271 258.937 313.338 258.937C311.405 258.937 309.838 260.504 309.838 262.437C309.838 264.37 311.405 265.937 313.338 265.937Z" fill="#E9D1FA"/>
<path d="M291.738 276.337C293.671 276.337 295.238 274.77 295.238 272.837C295.238 270.904 293.671 269.337 291.738 269.337C289.805 269.337 288.238 270.904 288.238 272.837C288.238 274.77 289.805 276.337 291.738 276.337Z" fill="#E9D1FA"/>
<path d="M302.539 276.337C304.472 276.337 306.039 274.77 306.039 272.837C306.039 270.904 304.472 269.337 302.539 269.337C300.606 269.337 299.039 270.904 299.039 272.837C299.039 274.77 300.606 276.337 302.539 276.337Z" fill="#E9D1FA"/>
<path d="M313.338 276.337C315.271 276.337 316.838 274.77 316.838 272.837C316.838 270.904 315.271 269.337 313.338 269.337C311.405 269.337 309.838 270.904 309.838 272.837C309.838 274.77 311.405 276.337 313.338 276.337Z" fill="#E9D1FA"/>
<path d="M1798.29 229.676C1801.49 229.676 1804.09 227.079 1804.09 223.876C1804.09 220.673 1801.49 218.076 1798.29 218.076C1795.09 218.076 1792.49 220.673 1792.49 223.876C1792.49 227.079 1795.09 229.676 1798.29 229.676Z" fill="#E9D1FA"/>
<path d="M1814.99 229.676C1818.19 229.676 1820.79 227.079 1820.79 223.876C1820.79 220.673 1818.19 218.076 1814.99 218.076C1811.79 218.076 1809.19 220.673 1809.19 223.876C1809.19 227.079 1811.79 229.676 1814.99 229.676Z" fill="#E9D1FA"/>
<path d="M1798.29 246.676C1801.49 246.676 1804.09 244.079 1804.09 240.876C1804.09 237.673 1801.49 235.076 1798.29 235.076C1795.09 235.076 1792.49 237.673 1792.49 240.876C1792.49 244.079 1795.09 246.676 1798.29 246.676Z" fill="#E9D1FA"/>
<path d="M1814.99 246.676C1818.19 246.676 1820.79 244.079 1820.79 240.876C1820.79 237.673 1818.19 235.076 1814.99 235.076C1811.79 235.076 1809.19 237.673 1809.19 240.876C1809.19 244.079 1811.79 246.676 1814.99 246.676Z" fill="#E9D1FA"/>
<path d="M372.039 583.237C375.573 583.237 378.439 580.372 378.439 576.837C378.439 573.302 375.573 570.437 372.039 570.437C368.504 570.437 365.639 573.302 365.639 576.837C365.639 580.372 368.504 583.237 372.039 583.237Z" fill="#E9D1FA"/>
<path d="M385.039 596.237C388.573 596.237 391.439 593.372 391.439 589.837C391.439 586.302 388.573 583.437 385.039 583.437C381.504 583.437 378.639 586.302 378.639 589.837C378.639 593.372 381.504 596.237 385.039 596.237Z" fill="#E9D1FA"/>
<path d="M358.738 596.437C362.273 596.437 365.138 593.571 365.138 590.037C365.138 586.502 362.273 583.637 358.738 583.637C355.203 583.637 352.338 586.502 352.338 590.037C352.338 593.571 355.203 596.437 358.738 596.437Z" fill="#E9D1FA"/>
<path d="M371.738 609.437C375.273 609.437 378.138 606.571 378.138 603.037C378.138 599.502 375.273 596.637 371.738 596.637C368.203 596.637 365.338 599.502 365.338 603.037C365.338 606.571 368.203 609.437 371.738 609.437Z" fill="#E9D1FA"/>
<path d="M1467.64 514.587H1323.74C1318.74 514.587 1314.74 510.587 1314.74 505.587V409.787C1314.74 404.787 1318.74 400.787 1323.74 400.787H1467.74C1472.74 400.787 1476.74 404.787 1476.74 409.787V505.587C1476.64 510.587 1472.64 514.587 1467.64 514.587Z" fill="#E9D1FA" stroke="#17005E" stroke-width="1.5" stroke-miterlimit="10" stroke-linecap="round" stroke-linejoin="round"/>
<path d="M1384.24 434.086L1409.94 448.886C1411.64 449.886 1411.64 452.386 1409.94 453.386L1384.24 468.186C1382.54 469.186 1380.34 467.886 1380.34 465.886V436.286C1380.34 434.286 1382.54 433.086 1384.24 434.086Z" fill="#F6A143" stroke="#17005E" stroke-width="1.5" stroke-miterlimit="10" stroke-linecap="round" stroke-linejoin="round"/>
<path d="M1461.74 499.486C1462.68 499.486 1463.44 498.725 1463.44 497.786C1463.44 496.847 1462.68 496.086 1461.74 496.086C1460.8 496.086 1460.04 496.847 1460.04 497.786C1460.04 498.725 1460.8 499.486 1461.74 499.486Z" fill="#17005E" stroke="#17005E" stroke-width="1.5" stroke-miterlimit="10" stroke-linecap="round" stroke-linejoin="round"/>
<path d="M1344.44 497.787H1461.74" stroke="#17005E" stroke-width="1.5" stroke-miterlimit="10" stroke-linecap="round" stroke-linejoin="round"/>
<path d="M1455.14 410.086H1467.24" stroke="#17005E" stroke-width="1.5" stroke-miterlimit="10" stroke-linecap="round" stroke-linejoin="round"/>
<path d="M1455.14 415.086H1467.24" stroke="#17005E" stroke-width="1.5" stroke-miterlimit="10" stroke-linecap="round" stroke-linejoin="round"/>
<path d="M1455.14 420.086H1467.24" stroke="#17005E" stroke-width="1.5" stroke-miterlimit="10" stroke-linecap="round" stroke-linejoin="round"/>
<path d="M1335.04 494.386H1326.24V501.186H1335.04V494.386Z" fill="#F5A3D2" stroke="#17005E" stroke-width="1.5" stroke-miterlimit="10" stroke-linecap="round" stroke-linejoin="round"/>
<path d="M196.938 412.664H15.7383C10.7383 412.664 6.73828 408.664 6.73828 403.664V281.664C6.73828 276.664 10.7383 272.664 15.7383 272.664H196.938C201.938 272.664 205.938 276.664 205.938 281.664V403.564C205.938 408.564 201.938 412.664 196.938 412.664Z" fill="#F6A143" stroke="#17005E" stroke-width="1.5" stroke-miterlimit="10" stroke-linecap="round" stroke-linejoin="round"/>
<path d="M92.2375 313.564L123.938 331.764C126.138 332.964 126.138 336.064 123.938 337.364L92.2375 355.564C90.1375 356.764 87.4375 355.264 87.4375 352.764V316.364C87.4375 313.864 90.1375 312.364 92.2375 313.564Z" fill="#F5A3D2" stroke="#17005E" stroke-width="1.5" stroke-miterlimit="10" stroke-linecap="round" stroke-linejoin="round"/>
<path d="M105.838 394.064C106.998 394.064 107.938 393.124 107.938 391.964C107.938 390.804 106.998 389.864 105.838 389.864C104.678 389.864 103.738 390.804 103.738 391.964C103.738 393.124 104.678 394.064 105.838 394.064Z" fill="#17005E" stroke="#17005E" stroke-width="1.5" stroke-miterlimit="10" stroke-linecap="round" stroke-linejoin="round"/>
<path d="M43.2383 391.964H187.638" stroke="#17005E" stroke-width="1.5" stroke-miterlimit="10" stroke-linecap="round" stroke-linejoin="round"/>
<path d="M179.537 284.164H194.437" stroke="#17005E" stroke-width="1.5" stroke-miterlimit="10" stroke-linecap="round" stroke-linejoin="round"/>
<path d="M179.537 290.264H194.437" stroke="#17005E" stroke-width="1.5" stroke-miterlimit="10" stroke-linecap="round" stroke-linejoin="round"/>
<path d="M179.537 296.364H194.437" stroke="#17005E" stroke-width="1.5" stroke-miterlimit="10" stroke-linecap="round" stroke-linejoin="round"/>
<path d="M31.7375 387.764H20.9375V396.064H31.7375V387.764Z" fill="#E9D1FA" stroke="#17005E" stroke-width="1.5" stroke-miterlimit="10" stroke-linecap="round" stroke-linejoin="round"/>
<path d="M607.239 603.337H437.639C432.639 603.337 428.639 599.337 428.639 594.337V480.537C428.639 475.537 432.639 471.537 437.639 471.537H607.239C612.239 471.537 616.239 475.537 616.239 480.537V594.337C616.239 599.237 612.239 603.337 607.239 603.337Z" fill="#F5A3D2" stroke="#17005E" stroke-width="1.5" stroke-miterlimit="10" stroke-linecap="round" stroke-linejoin="round"/>
<path d="M509.239 510.037L539.039 527.137C541.039 528.337 541.039 531.237 539.039 532.437L509.239 549.537C507.239 550.737 504.739 549.237 504.739 546.937V512.637C504.639 510.337 507.239 508.837 509.239 510.037Z" fill="#E9D1FA" stroke="#17005E" stroke-width="1.5" stroke-miterlimit="10" stroke-linecap="round" stroke-linejoin="round"/>
<path d="M565.738 585.837C566.843 585.837 567.738 584.941 567.738 583.837C567.738 582.732 566.843 581.837 565.738 581.837C564.634 581.837 563.738 582.732 563.738 583.837C563.738 584.941 564.634 585.837 565.738 585.837Z" fill="#17005E" stroke="#17005E" stroke-width="1.5" stroke-miterlimit="10" stroke-linecap="round" stroke-linejoin="round"/>
<path d="M463.039 583.837H599.039" stroke="#17005E" stroke-width="1.5" stroke-miterlimit="10" stroke-linecap="round" stroke-linejoin="round"/>
<path d="M591.338 482.337H605.438" stroke="#17005E" stroke-width="1.5" stroke-miterlimit="10" stroke-linecap="round" stroke-linejoin="round"/>
<path d="M591.338 488.037H605.438" stroke="#17005E" stroke-width="1.5" stroke-miterlimit="10" stroke-linecap="round" stroke-linejoin="round"/>
<path d="M591.338 493.737H605.438" stroke="#17005E" stroke-width="1.5" stroke-miterlimit="10" stroke-linecap="round" stroke-linejoin="round"/>
<path d="M452.239 579.937H442.039V587.837H452.239V579.937Z" fill="#F6A143" stroke="#17005E" stroke-width="1.5" stroke-miterlimit="10" stroke-linecap="round" stroke-linejoin="round"/>
</svg>
